<?xml version="1.0" encoding="utf-8"?>
<!-- Generator: Adobe Illustrator 16.0.0, SVG Export Plug-In . SVG Version: 6.00 Build 0)  -->
<!DOCTYPE svg PUBLIC "-//W3C//DTD SVG 1.1//EN" "http://www.w3.org/Graphics/SVG/1.1/DTD/svg11.dtd">
<svg version="1.1" id="Layer_1" xmlns="http://www.w3.org/2000/svg" xmlns:xlink="http://www.w3.org/1999/xlink" x="0px" y="0px"
	 width="288px" height="288px" viewBox="0 0 288 288" enable-background="new 0 0 288 288" xml:space="preserve">
<g>
	<defs>
		<rect id="SVGID_1_" width="288" height="288"/>
	</defs>
	<clipPath id="SVGID_2_">
		<use xlink:href="#SVGID_1_"  overflow="visible"/>
	</clipPath>
	<path clip-path="url(#SVGID_2_)" fill="#2BB673" d="M68.512,181.06c-3.095,0.656-8.542,1.223-13.514,1.223
		c-12.111,0-22.906-8.451-22.906-25.535v-48.524c0-1.032,0.844-1.879,1.88-1.879h12.294c1.032,0,1.879,0.847,1.879,1.879v48.524
		c0,4.886,1.596,13.513,6.009,13.513l14.358,1.784c1.034,0,1.881,0.849,1.881,1.88v5.163
		C70.393,180.31,69.827,180.775,68.512,181.06"/>
	<path clip-path="url(#SVGID_2_)" fill="#2BB673" d="M69.529,165.599h-5.064c-0.778,0-1.414-0.642-1.414-1.418l-1.783-37.699
		c0-0.779,0.636-1.414,1.414-1.414h8.63c0.778,0,1.415,0.635,1.415,1.414l-1.783,37.699
		C70.944,164.957,70.308,165.599,69.529,165.599"/>
	<path clip-path="url(#SVGID_2_)" fill="#2BB673" d="M86.151,169.164h-5.062c-0.78,0-1.486-0.709-1.486-1.487l-1.783-51.349
		c0-0.779,0.706-1.418,1.487-1.418h8.627c0.778,0,1.345,0.639,1.345,1.418l-1.783,51.349
		C87.496,168.455,86.929,169.164,86.151,169.164"/>
	<path clip-path="url(#SVGID_2_)" fill="#2BB673" d="M125.601,122.825l-8.425,50.879c-2.195,7.638-5.094,11.53-15.491,11.53
		c-2.615,0-15.404-0.688-17.172-1.259c-0.778-0.282-1.486-0.495-1.486-1.272v-5.73c0-0.777,0.639-1.342,1.417-1.342h0.141
		c2.332,0.143,15.122,0.688,17.454,0.688c2.545,0,3.821-0.847,4.669-3.674l0.636-2.196h-1.061c-2.617,0-4.808-0.426-6.576-6.576
		l-9.339-31.832c-0.069-0.213-0.069-0.351-0.069-0.495c0-0.703,0.423-1.13,1.413-1.13h9.409c0.709,0,1.2,0.635,1.345,1.343
		l6.364,26.597c0.211,0.99,0.425,1.341,0.848,1.341h0.069h0.284h0.283l3.121-37.156c0.139-0.707,0.708-1.342,1.485-1.342h9.409
		c0.708,0,1.344,0.565,1.344,1.274C125.672,122.612,125.601,122.688,125.601,122.825"/>
	<path clip-path="url(#SVGID_2_)" fill="#2BB673" d="M154.53,149.998c-2.247,0.113-5.258,0.075-7.609,0.1l-0.635,29.911
		c0.053,1.028-0.747,1.92-1.777,1.972l-4.961,0.61c-1.034,0.052-1.916-0.654-1.968-1.685l-8.526-70.129
		c-0.161-3.191,1.109-4.096,3.994-4.716c4.741-0.989,12.217-1.84,18.969-2.18c14.155-0.715,28.376,3.549,29.265,21.174l0.041,0.847
		C182.208,143.428,168.498,149.295,154.53,149.998 M165.343,125.86c-0.336-6.658-4.595-9.076-12.468-8.678
		c-1.313,0.066-6.46,0.518-7.581,0.667l0.965,19.127c1.04,0.042,6.573-0.147,7.604-0.2c8.344-0.421,11.844-3.697,11.521-10.07
		L165.343,125.86z"/>
	<path clip-path="url(#SVGID_2_)" fill="#2BB673" d="M183.945,182.607l-4.788,0.162c-0.606,0.022-1.122-0.458-1.145-1.062
		l-0.036-0.881c-2.09,1.629-4.262,2.653-7.568,2.78c-4.799,0.19-9.523-1.947-9.804-9.12l-0.018-0.495
		c-0.25-6.455,3.775-9.485,13.209-9.85l2.977-0.117l-0.078-1.986c-0.122-3.141-1.691-3.741-4.285-3.641
		c-3.528,0.138-7.435,0.507-9.138,0.742l-0.276,0.01c-0.554,0.024-1.005-0.239-1.031-0.96l-0.25-5.851
		c-0.022-0.607,0.347-1.068,0.999-1.258c2.023-0.578,5.934,0.001,9.576-0.135c7.94-0.31,13.027,2.698,13.341,10.745l-0.624,19.768
		C185.026,182.061,184.55,182.581,183.945,182.607 M177.144,169.315l-3.145,0.12c-3.858,0.149-4.803,1.511-4.697,4.217l0.021,0.494
		c0.089,2.318,1.265,2.713,3.581,2.624c1.655-0.064,3.177-0.678,4.475-1.391L177.144,169.315z"/>
	<path clip-path="url(#SVGID_2_)" fill="#2BB673" d="M222.582,181.774c-4.031,0.991-9.621,1.845-15.066,1.845
		c-11.458,0-17.752-6.652-17.752-18.108v-5.517c0-11.109,5.799-18.107,17.752-18.107c1.414,0,3.749,0.207,5.802,0.496l-1.784-30.067
		c0-0.777,0.636-1.416,1.414-1.416h12.124c0.777,0,1.486,0.639,1.486,1.416l-1.783,67.409
		C224.774,180.86,224.492,181.356,222.582,181.774 M213.317,151.718c-1.7-0.213-4.104-0.357-5.802-0.357
		c-5.021,0-6.295,3.682-6.295,8.634v5.517c0,5.02,1.273,8.696,6.295,8.696c2.334,0,4.456-0.213,5.802-0.426V151.718z"/>
	<path clip-path="url(#SVGID_2_)" fill="#2BB673" d="M241.321,182.082c-3.336-0.22-7.914-1.015-10.949-2.069
		c-0.717-0.224-1.109-0.741-1.062-1.467l0.325-4.915c0.041-0.607,0.501-1.12,1.229-1.074c0.059,0.003,0.181,0.013,0.242,0.016
		c3.246,0.643,8.312,1.402,10.253,1.53c2.911,0.192,3.633-0.554,3.737-2.129c0.06-0.913-0.442-1.615-2.078-2.697l-7.584-5.067
		c-3.269-2.164-5.065-5.394-4.804-9.335c0.402-6.124,4.682-9.131,13.051-8.577c4.792,0.315,7.662,1.11,10.705,2.104
		c0.717,0.231,1.109,0.742,1.062,1.473l-0.325,4.911c-0.048,0.729-0.499,1.129-1.106,1.088c-0.06-0.006-0.12-0.008-0.182-0.013
		c-1.742-0.357-6.924-1.251-10.018-1.454c-2.365-0.159-3.238,0.151-3.331,1.543c-0.06,0.91,0.574,1.444,1.741,2.248l7.237,4.806
		c4.841,3.241,5.723,6.468,5.508,9.741C254.596,178.45,250.177,182.667,241.321,182.082"/>
	<path clip-path="url(#SVGID_2_)" fill="#2BB673" d="M66.005,114.146c-5.14,0.541-9.108,2.864-8.863,5.189
		c0.245,2.325,4.61,3.772,9.75,3.23c5.14-0.541,9.108-2.866,8.863-5.19C75.511,115.049,71.146,113.603,66.005,114.146
		 M66.98,121.884c-3.942,0.416-7.373-0.463-8.468-2.021c1.97,1,5.109,1.462,8.574,1.096c3.078-0.324,5.766-1.234,7.535-2.405
		C73.588,120.134,70.612,121.502,66.98,121.884"/>
	<path clip-path="url(#SVGID_2_)" fill="#2BB673" d="M73.562,113.596c-0.255,1.704-1.843,2.878-3.548,2.623
		c-1.703-0.254-2.877-1.843-2.622-3.548c0.255-1.704,1.843-2.877,3.546-2.622C72.643,110.304,73.816,111.892,73.562,113.596"/>
	<path clip-path="url(#SVGID_2_)" fill="#2BB673" d="M64.566,114.545c-0.255,1.703-1.843,2.877-3.546,2.621
		c-1.704-0.254-2.879-1.843-2.623-3.546c0.255-1.705,1.843-2.878,3.546-2.623C63.648,111.252,64.822,112.841,64.566,114.545"/>
	<path clip-path="url(#SVGID_2_)" fill="#2BB673" d="M196.342,123.719c-7.893,0.83-13.987,4.399-13.61,7.969
		c0.375,3.572,7.081,5.793,14.975,4.961s13.987-4.401,13.611-7.97C210.94,125.106,204.236,122.886,196.342,123.719 M197.841,135.604
		c-6.055,0.638-11.323-0.712-13.004-3.104c3.024,1.537,7.847,2.245,13.168,1.683c4.726-0.497,8.854-1.895,11.57-3.694
		C207.989,132.917,203.418,135.017,197.841,135.604"/>
	<path clip-path="url(#SVGID_2_)" fill="#2BB673" d="M207.948,122.875c-0.391,2.617-2.831,4.421-5.449,4.028
		c-2.616-0.39-4.419-2.83-4.029-5.448c0.394-2.618,2.832-4.418,5.448-4.028C206.536,117.82,208.34,120.259,207.948,122.875"/>
	<path clip-path="url(#SVGID_2_)" fill="#2BB673" d="M194.135,124.332c-0.393,2.616-2.831,4.418-5.447,4.026
		c-2.615-0.39-4.422-2.83-4.03-5.446c0.393-2.618,2.832-4.42,5.447-4.028C192.723,119.275,194.526,121.716,194.135,124.332"/>
</g>
</svg>
