<svg version="1.1" xmlns="http://www.w3.org/2000/svg" xmlns:xlink="http://www.w3.org/1999/xlink" x="0px" y="0px"
	 width="288px" height="288px" viewBox="0 0 288 288" enable-background="new 0 0 288 288" xml:space="preserve">
<defs>
  <radialGradient id="gradient" cx="0" cy="288" r="1">
		<stop offset="0" style="stop-color:#CFEDFC"/>
		<stop offset="1" style="stop-color:#2AACE3"/>
	</radialGradient>
  <path id="little-fish" d="M192.926,107.2c-0.215-0.537-0.148-1.07,0.152-1.191c0.299-0.12,0.717,0.218,0.934,0.754
    c0.214,0.538,0.146,1.071-0.154,1.191c-0.04,0.016-0.083,0.024-0.127,0.024C193.449,107.978,193.113,107.663,192.926,107.2
     M185.418,103.362c-3.153,1.267-5.158,4.176-5.457,7.375l-0.705-0.315c0,0-5.624-3.66-6.014-2.689
    c-0.39,0.971,3.53,8.789,3.53,8.789s2.55,8.358,3.528,8.788c0.981,0.431,2.484-6.1,2.484-6.1l0.315-0.774
    c2.423,2.057,5.85,2.742,8.97,1.489c4.079-1.637,6.24-6.021,5.268-10.224c-0.063,0.618-0.685,1.295-1.596,1.66
    c-1.132,0.455-2.283,0.253-2.566-0.453c-0.012-0.03-0.02-0.059-0.029-0.089c0.575,0.34,1.52,0.357,2.456-0.02
    c0.788-0.317,1.386-0.839,1.663-1.382c-0.096-0.352-0.209-0.706-0.35-1.055c-1.405-3.497-4.744-5.629-8.256-5.629
    C187.579,102.733,186.481,102.935,185.418,103.362"/>
  <path id="big-fish" d="M138.156,186.293c-0.01-0.431,0.178-0.786,0.421-0.791c0.239-0.006,0.442,0.34,0.452,0.773
    c0.01,0.432-0.18,0.785-0.422,0.792c-0.002,0-0.003,0-0.005,0C138.364,187.067,138.164,186.722,138.156,186.293 M124.252,181.482
    c-0.527,0.575,0.152,7.074,0.152,7.074s-0.417,6.518,0.154,7.076c0.573,0.559,3.345-3.611,3.345-3.611l0.423-0.46
    c1.153,2.077,3.367,3.458,5.881,3.405c3.281-0.073,5.947-2.566,6.373-5.762c-0.207,0.414-0.818,0.725-1.551,0.74
    c-0.911,0.02-1.662-0.426-1.675-0.993c0-0.023,0.001-0.046,0.001-0.069c0.315,0.391,0.971,0.649,1.725,0.633
    c0.635-0.014,1.188-0.223,1.525-0.527c0.028-0.273,0.04-0.55,0.033-0.83c-0.078-3.683-3.087-6.604-6.722-6.525
    c-2.537,0.054-4.707,1.562-5.758,3.719l-0.41-0.404c0,0-2.587-3.521-3.36-3.521C124.333,181.426,124.287,181.444,124.252,181.482"
    />
</defs>
<g>
	<clipPath id="little-fish-clip"><use xlink:href="#little-fish"  overflow="visible"/></clipPath>
	<rect x="172.853" y="102.733" clip-path="url(#little-fish-clip)" fill="url(#gradient)" width="25.458" height="23.008"/>
</g>
<g>
	<clipPath id="big-fish-clip"><use xlink:href="#big-fish" overflow="visible"/></clipPath>
	<rect x="123.725" y="181.426" clip-path="url(#big-fish-clip)" fill="url(#gradient)" width="16.92" height="14.766"/>
</g>
<g>
	<defs>
		<path id="SVGID_7_" d="M135.592,175.543c-0.004-0.218,0.089-0.396,0.211-0.398c0.12-0.004,0.222,0.171,0.228,0.388
			c0.004,0.218-0.09,0.395-0.211,0.396c-0.001,0-0.003,0-0.004,0C135.697,175.929,135.598,175.757,135.592,175.543 M128.609,173.125
			c-0.265,0.29,0.077,3.555,0.077,3.555s-0.209,3.271,0.078,3.553c0.287,0.281,1.679-1.814,1.679-1.814l0.214-0.231
			c0.577,1.044,1.689,1.736,2.952,1.712c1.648-0.037,2.988-1.289,3.202-2.895c-0.104,0.209-0.412,0.364-0.78,0.372
			c-0.459,0.01-0.836-0.213-0.842-0.499c0-0.012,0-0.023,0.003-0.035c0.155,0.195,0.486,0.327,0.865,0.318
			c0.318-0.007,0.597-0.111,0.765-0.267c0.014-0.136,0.022-0.274,0.018-0.417c-0.039-1.848-1.553-3.314-3.377-3.275
			c-1.274,0.026-2.364,0.784-2.891,1.868l-0.207-0.204c0,0-1.299-1.769-1.688-1.769C128.65,173.097,128.627,173.106,128.609,173.125
			"/>
	</defs>
	<clipPath id="SVGID_8_">
		<use xlink:href="#SVGID_7_"  overflow="visible"/>
	</clipPath>
	
		<radialGradient id="SVGID_9_" cx="0" cy="288" r="1" gradientTransform="matrix(0 -48.26 -48.26 0 14024.0166 216.4688)" gradientUnits="userSpaceOnUse">
		<stop  offset="0" style="stop-color:#CFEDFC"/>
		<stop  offset="1" style="stop-color:#2AACE3"/>
	</radialGradient>
	<rect x="128.344" y="173.097" clip-path="url(#SVGID_8_)" fill="url(#SVGID_9_)" width="8.5" height="7.417"/>
</g>
<g>
	<defs>
		<path id="SVGID_10_" d="M143.527,178.672c-0.004-0.132,0.055-0.241,0.129-0.242c0.072-0.002,0.135,0.104,0.139,0.236
			c0.003,0.132-0.055,0.242-0.129,0.244h-0.001C143.591,178.91,143.529,178.804,143.527,178.672 M139.266,177.197
			c-0.163,0.178,0.047,2.17,0.047,2.17s-0.13,1.997,0.045,2.168c0.177,0.172,1.025-1.107,1.025-1.107l0.13-0.14
			c0.354,0.635,1.034,1.059,1.803,1.043c1.006-0.022,1.824-0.787,1.957-1.767c-0.065,0.127-0.253,0.223-0.478,0.228
			c-0.279,0.006-0.51-0.13-0.514-0.305v-0.021c0.098,0.119,0.299,0.199,0.529,0.193c0.196-0.004,0.364-0.067,0.467-0.162
			c0.01-0.083,0.014-0.168,0.012-0.254c-0.025-1.129-0.947-2.024-2.062-2c-0.778,0.016-1.444,0.479-1.764,1.14l-0.127-0.125
			c0,0-0.792-1.079-1.028-1.079C139.291,177.18,139.277,177.186,139.266,177.197"/>
	</defs>
	<clipPath id="SVGID_11_">
		<use xlink:href="#SVGID_10_"  overflow="visible"/>
	</clipPath>
	
		<radialGradient id="SVGID_12_" cx="0" cy="288" r="1" gradientTransform="matrix(0 -29.4476 -29.4476 0 8618.0498 203.6406)" gradientUnits="userSpaceOnUse">
		<stop  offset="0" style="stop-color:#CFEDFC"/>
		<stop  offset="1" style="stop-color:#2AACE3"/>
	</radialGradient>
	<rect x="139.103" y="177.18" clip-path="url(#SVGID_11_)" fill="url(#SVGID_12_)" width="5.188" height="4.527"/>
</g>
<g>
	<defs>
		<path id="SVGID_13_" d="M28.93,132.92l-0.393,10.252c-0.8,20.916,13.13,26.83,22.555,27.192c8.267,0.315,17.081,0.443,21.58-0.294
			c1.25-0.2,1.682-0.681,1.726-1.838l-4.136-29.201c0.034-0.909-0.681-1.682-1.59-1.716l-9.197,0.368
			c-0.909-0.034-1.6,0.684-1.634,1.594l1.906,18.929c-1.99,0.09-5.875,0.093-8.19,0.004c-4.05-0.156-9.157-2.999-8.721-14.408
			l0.396-10.333c0.415-10.83,4.67-13.897,11.367-13.64c7.028,0.269,13.791,1.513,17.753,1.83c0.084,0.004,0.166,0.007,0.249,0.009
			c0.744,0.029,1.246-0.118,1.281-1.027l0.337-8.763c0.027-0.743-0.54-1.096-1.36-1.293c-3.033-0.779-9.521-2.758-17.788-3.075
			c-0.501-0.019-1.005-0.029-1.51-0.029C41.989,107.481,29.703,112.721,28.93,132.92"/>
	</defs>
	<clipPath id="SVGID_14_">
		<use xlink:href="#SVGID_13_"  overflow="visible"/>
	</clipPath>
	
		<radialGradient id="SVGID_15_" cx="0" cy="288" r="1" gradientTransform="matrix(-1.530000e-05 -412.9393 -412.9393 1.530000e-05 118936.5078 489.7456)" gradientUnits="userSpaceOnUse">
		<stop  offset="0" style="stop-color:#CFEDFC"/>
		<stop  offset="1" style="stop-color:#2AACE3"/>
	</radialGradient>
	<rect x="27.737" y="107.481" clip-path="url(#SVGID_14_)" fill="url(#SVGID_15_)" width="46.661" height="63.327"/>
</g>
<g>
	<defs>
		<path id="SVGID_16_" d="M96.722,131.995l0.148,28.246c-2.124,1.125-4.062,2-5.873,2c-3.812,0-4.623-1.438-4.623-5.812v-20.807
			c0-0.687-0.563-1.311-1.25-1.311h-5.339c-0.688,0-1.313,0.624-1.313,1.311l-2.221,20.807c0,7.873,2,14.184,11.059,14.184
			c4,0,6.749-0.812,10.184-3.249l0.606,2.561c0,0.688,0.563,1.25,1.249,1.25l1.915-0.556c0.687,0,1.248-0.562,1.248-1.249
			l4.023-36.771c0-0.686-0.625-1.311-1.312-1.311l-7.25-0.605C97.286,130.683,96.722,131.307,96.722,131.995"/>
	</defs>
	<clipPath id="SVGID_17_">
		<use xlink:href="#SVGID_16_"  overflow="visible"/>
	</clipPath>
	
		<radialGradient id="SVGID_18_" cx="0" cy="288" r="1" gradientTransform="matrix(-1.530000e-05 -265.1618 -265.1618 1.530000e-05 76430.6094 375.7456)" gradientUnits="userSpaceOnUse">
		<stop  offset="0" style="stop-color:#CFEDFC"/>
		<stop  offset="1" style="stop-color:#2AACE3"/>
	</radialGradient>
	<rect x="76.251" y="130.683" clip-path="url(#SVGID_17_)" fill="url(#SVGID_18_)" width="30.284" height="40.492"/>
</g>
<g>
	<defs>
		<path id="SVGID_19_" d="M126.422,161.521c-1.631-0.069-3.932-0.372-5.555-0.646l0.902-21.205c1.301-0.149,3.346-0.197,5.588-0.102
			c4.827,0.205,5.902,3.724,5.698,8.55l-0.227,5.301c-0.197,4.627-1.505,8.111-6.014,8.111
			C126.686,161.53,126.555,161.527,126.422,161.521 M111.379,131.006c-1.852,0.329-2.144,0.794-2.192,1.882l2.293,60.461
			c-0.033,0.748,0.621,1.389,1.369,1.42l3.39,0.146c0.747,0.032,1.386-0.554,1.417-1.302l2.829-23.766
			c1.958,0.355,4.193,0.655,5.552,0.713c11.487,0.489,17.347-6.002,17.801-16.674l0.228-5.301
			c0.468-11.01-5.31-17.657-16.319-18.126c-1.87-0.079-3.995-0.133-6.13-0.133C117.774,130.327,113.894,130.5,111.379,131.006"/>
	</defs>
	<clipPath id="SVGID_20_">
		<use xlink:href="#SVGID_19_"  overflow="visible"/>
	</clipPath>
	
		<radialGradient id="SVGID_21_" cx="0" cy="288" r="1" gradientTransform="matrix(-1.530000e-05 -418.7343 -418.7343 1.530000e-05 120690.4844 521.4956)" gradientUnits="userSpaceOnUse">
		<stop  offset="0" style="stop-color:#CFEDFC"/>
		<stop  offset="1" style="stop-color:#2AACE3"/>
	</radialGradient>
	<rect x="109.187" y="130.327" clip-path="url(#SVGID_20_)" fill="url(#SVGID_21_)" width="35.346" height="64.62"/>
</g>
<g>
	<defs>
		<path id="SVGID_22_" d="M158.071,161.122v-21.225c1.29-0.204,3.331-0.34,5.578-0.34c4.826,0,6.054,3.47,6.054,8.3v5.305
			c0,4.763-1.228,8.367-6.054,8.367C162.013,161.529,159.701,161.326,158.071,161.122 M147.343,131.604
			c-1.837,0.409-2.107,0.885-2.107,1.974l4.837,60.389c0,0.747,0.68,1.359,1.428,1.359h3.395c0.747,0,1.361-0.612,1.361-1.359
			l1.815-23.865c1.972,0.271,4.216,0.477,5.578,0.477c11.495,0,17.073-6.735,17.073-17.416v-5.305
			c0-11.022-6.055-17.417-17.073-17.417C158.41,130.441,151.221,130.653,147.343,131.604"/>
	</defs>
	<clipPath id="SVGID_23_">
		<use xlink:href="#SVGID_22_"  overflow="visible"/>
	</clipPath>
	
		<radialGradient id="SVGID_24_" cx="0" cy="288" r="1" gradientTransform="matrix(-1.530000e-05 -420.7664 -420.7664 1.530000e-05 121311.4609 523.2456)" gradientUnits="userSpaceOnUse">
		<stop  offset="0" style="stop-color:#CFEDFC"/>
		<stop  offset="1" style="stop-color:#2AACE3"/>
	</radialGradient>
	<rect x="145.235" y="130.441" clip-path="url(#SVGID_23_)" fill="url(#SVGID_24_)" width="35.487" height="64.885"/>
</g>
<g>
	<defs>
		<path id="SVGID_25_" d="M184.151,127.356c-0.749,0-1.362,0.613-1.362,1.361l3.629,39.889c0,0.748,0.613,1.36,1.362,1.36h4.065
			c0.748,0,1.359-0.612,1.359-1.36l3.023-39.889c0-0.748-0.611-1.361-1.359-1.361H184.151z"/>
	</defs>
	<clipPath id="SVGID_26_">
		<use xlink:href="#SVGID_25_"  overflow="visible"/>
	</clipPath>
	
		<radialGradient id="SVGID_27_" cx="0" cy="288" r="1" gradientTransform="matrix(-1.530000e-05 -274.2217 -274.2217 1.530000e-05 79153.0938 385.2456)" gradientUnits="userSpaceOnUse">
		<stop  offset="0" style="stop-color:#CFEDFC"/>
		<stop  offset="1" style="stop-color:#2AACE3"/>
	</radialGradient>
	<rect x="182.789" y="127.356" clip-path="url(#SVGID_26_)" fill="url(#SVGID_27_)" width="13.439" height="42.61"/>
</g>
<g>
	<defs>
		<path id="SVGID_28_" d="M209.387,151.07c0-4.968,2.518-7.551,6.26-7.551c3.809,0,6.12,2.516,6.12,7.551v0.27h-12.38V151.07z
			 M198.502,152.566v4.762c0,13.129,8.844,17.482,17.076,17.482c5.918,0,9.592-2.357,13.945-3.445
			c1.156-0.273,1.428-0.75,1.428-1.837v-3.357c0-0.748-0.543-1.088-1.293-1.088h-0.203c-2.721,0.272-8.775,0.612-13.062,0.612
			c-5.375,0-7.007-3.537-7.007-7.415v-0.137h21.701c0.884,0,1.428-0.611,1.428-1.632v-3.945c0-10.273-5.645-17.892-16.803-17.892
			C204.897,134.675,198.502,141.613,198.502,152.566"/>
	</defs>
	<clipPath id="SVGID_29_">
		<use xlink:href="#SVGID_28_"  overflow="visible"/>
	</clipPath>
	
		<radialGradient id="SVGID_30_" cx="0" cy="288" r="1" gradientTransform="matrix(-1.530000e-05 -264.3633 -264.3633 1.530000e-05 76321.375 377.7456)" gradientUnits="userSpaceOnUse">
		<stop  offset="0" style="stop-color:#CFEDFC"/>
		<stop  offset="1" style="stop-color:#2AACE3"/>
	</radialGradient>
	<rect x="198.502" y="134.675" clip-path="url(#SVGID_29_)" fill="url(#SVGID_30_)" width="34.014" height="40.136"/>
</g>
<g>
	<defs>
		<path id="SVGID_31_" d="M232.688,142.799c0,4.423,2.243,7.893,6.054,10.07l8.843,5.101c1.905,1.089,2.517,1.837,2.517,2.857
			c0,1.769-0.971,1.468-4.014,2.653c-3.832,1.492-6.353,1.594-11.563,1.467c-0.069-0.001-0.204,0-0.272,0
			c-0.816,0-1.293,0.007-1.293,0.688v3.695c0,0.818,0.477,1.361,1.293,1.566c3.469,0.951,8.638,1.495,12.38,1.495
			c9.934,0,14.561-5.033,14.561-11.429c0-3.674-1.226-7.211-6.872-10.476l-8.437-4.83c-1.359-0.816-2.107-1.361-2.107-2.382
			c0-1.564,0.952-1.971,3.604-1.971c3.471,0,9.321,0.611,11.292,0.883h0.206c0.679,0,1.156-0.476,1.156-1.293v-5.51
			c0-0.816-0.478-1.361-1.293-1.564c-3.471-0.884-6.734-1.565-12.11-1.565C237.244,132.255,232.688,135.929,232.688,142.799"/>
	</defs>
	<clipPath id="SVGID_32_">
		<use xlink:href="#SVGID_31_"  overflow="visible"/>
	</clipPath>
	
		<radialGradient id="SVGID_33_" cx="0" cy="288" r="1" gradientTransform="matrix(-1.530000e-05 -262.2937 -262.2937 1.530000e-05 75761.5781 375.2456)" gradientUnits="userSpaceOnUse">
		<stop  offset="0" style="stop-color:#CFEDFC"/>
		<stop  offset="1" style="stop-color:#2AACE3"/>
	</radialGradient>
	<rect x="232.688" y="132.255" clip-path="url(#SVGID_32_)" fill="url(#SVGID_33_)" width="28.505" height="40.137"/>
</g>
<g>
	<defs>
		<path id="SVGID_34_" d="M78.926,88.346c-0.457,0-0.872,0.372-0.872,0.829l1.815,36.157c0,0.456,0.415,0.871,0.871,0.871h3.244
			c0.456,0,0.787-0.415,0.787-0.871l1.814-36.157c0-0.457-0.331-0.829-0.787-0.829H78.926z"/>
	</defs>
	<clipPath id="SVGID_35_">
		<use xlink:href="#SVGID_34_"  overflow="visible"/>
	</clipPath>
	
		<radialGradient id="SVGID_36_" cx="0" cy="288" r="1" gradientTransform="matrix(-1.530000e-05 -243.1833 -243.1833 1.530000e-05 70111.4141 317.6206)" gradientUnits="userSpaceOnUse">
		<stop  offset="0" style="stop-color:#CFEDFC"/>
		<stop  offset="1" style="stop-color:#2AACE3"/>
	</radialGradient>
	<rect x="78.054" y="88.346" clip-path="url(#SVGID_35_)" fill="url(#SVGID_36_)" width="8.531" height="37.857"/>
</g>
<g>
	<defs>
		<path id="SVGID_37_" d="M91.356,102.44c-0.456,0-0.83,0.372-0.83,0.829l1.814,22.105c0,0.457,0.374,0.829,0.831,0.829h2.639
			c0.456,0,0.831-0.372,0.831-0.829l1.815-22.105c0-0.457-0.376-0.829-0.831-0.829H91.356z"/>
	</defs>
	<clipPath id="SVGID_38_">
		<use xlink:href="#SVGID_37_"  overflow="visible"/>
	</clipPath>
	
		<radialGradient id="SVGID_39_" cx="0" cy="288" r="1" gradientTransform="matrix(0 -153.0051 -153.0051 0 44152.7266 246.375)" gradientUnits="userSpaceOnUse">
		<stop  offset="0" style="stop-color:#CFEDFC"/>
		<stop  offset="1" style="stop-color:#2AACE3"/>
	</radialGradient>
	<rect x="90.526" y="102.44" clip-path="url(#SVGID_38_)" fill="url(#SVGID_39_)" width="7.93" height="23.763"/>
</g>
<g>
	<defs>
		<path id="SVGID_40_" d="M111.545,97.337l-5.059,0.87c-0.459,0.084-0.831,0.374-0.831,0.832v3.401h-3.319
			c-0.457,0-0.871,0.413-0.871,0.871v2.737c0,0.456,0.414,0.787,0.871,0.869l3.319,0.54v12.029c0,5.888,2.404,7.09,6.968,7.09
			c1.201,0,2.032-0.124,3.275-0.33c0.498-0.085,0.79-0.415,0.79-0.83v-3.236c0-0.456-0.334-0.704-0.872-0.704h-2.033
			c-1.242,0-1.367-0.29-1.367-1.951v-12.068h3.4c0.456,0,0.829-0.372,0.829-0.83v-3.358c0-0.457-0.373-0.829-0.829-0.829h-3.4
			v-4.398c0-0.415-0.334-0.705-0.746-0.705H111.545z"/>
	</defs>
	<clipPath id="SVGID_41_">
		<use xlink:href="#SVGID_40_"  overflow="visible"/>
	</clipPath>
	
		<radialGradient id="SVGID_42_" cx="0" cy="288" r="1" gradientTransform="matrix(-1.530000e-05 -189.4129 -189.4129 1.530000e-05 54646.1602 274.3706)" gradientUnits="userSpaceOnUse">
		<stop  offset="0" style="stop-color:#CFEDFC"/>
		<stop  offset="1" style="stop-color:#2AACE3"/>
	</radialGradient>
	<rect x="101.465" y="97.337" clip-path="url(#SVGID_41_)" fill="url(#SVGID_42_)" width="15.223" height="29.239"/>
</g>
<g>
	<defs>
		<path id="SVGID_43_" d="M129.016,97.337l-5.064,0.87c-0.456,0.084-0.827,0.374-0.827,0.832v3.401h-3.321
			c-0.454,0-0.871,0.413-0.871,0.871v2.737c0,0.456,0.417,0.787,0.871,0.869l3.321,0.54v12.029c0,5.888,2.404,7.09,6.966,7.09
			c1.202,0,2.034-0.124,3.276-0.33c0.5-0.085,0.791-0.415,0.791-0.83v-3.236c0-0.456-0.333-0.704-0.873-0.704h-2.031
			c-1.245,0-1.37-0.29-1.37-1.951v-12.068h3.401c0.457,0,0.828-0.372,0.828-0.83v-3.358c0-0.457-0.371-0.829-0.828-0.829h-3.401
			v-4.398c0-0.415-0.334-0.705-0.746-0.705H129.016z"/>
	</defs>
	<clipPath id="SVGID_44_">
		<use xlink:href="#SVGID_43_"  overflow="visible"/>
	</clipPath>
	
		<radialGradient id="SVGID_45_" cx="0" cy="288" r="1" gradientTransform="matrix(-1.530000e-05 -189.4134 -189.4134 1.530000e-05 54663.8203 274.3706)" gradientUnits="userSpaceOnUse">
		<stop  offset="0" style="stop-color:#CFEDFC"/>
		<stop  offset="1" style="stop-color:#2AACE3"/>
	</radialGradient>
	<rect x="118.933" y="97.337" clip-path="url(#SVGID_44_)" fill="url(#SVGID_45_)" width="15.225" height="29.239"/>
</g>
<g>
	<defs>
		<path id="SVGID_46_" d="M138.811,94.394c-0.456,0-0.872,0.372-0.872,0.829l1.815,30.109c0,0.456,0.416,0.871,0.871,0.871h2.035
			c0.457,0,0.787-0.415,0.787-0.871l1.209-30.109c0-0.457-0.33-0.829-0.787-0.829H138.811z"/>
	</defs>
	<clipPath id="SVGID_47_">
		<use xlink:href="#SVGID_46_"  overflow="visible"/>
	</clipPath>
	
		<radialGradient id="SVGID_48_" cx="0" cy="288" r="1" gradientTransform="matrix(-1.530000e-05 -204.2859 -204.2859 1.530000e-05 58969.5859 286.9956)" gradientUnits="userSpaceOnUse">
		<stop  offset="0" style="stop-color:#CFEDFC"/>
		<stop  offset="1" style="stop-color:#2AACE3"/>
	</radialGradient>
	<rect x="137.939" y="94.394" clip-path="url(#SVGID_47_)" fill="url(#SVGID_48_)" width="6.717" height="31.809"/>
</g>
<g>
	<defs>
		<path id="SVGID_49_" d="M155.656,112.102c0-3.026,1.533-4.604,3.816-4.604c2.318,0,3.73,1.534,3.73,4.604v0.167h-7.547V112.102z
			 M149.019,113.015v2.902c0,8.006,5.392,10.659,10.409,10.659c3.611,0,5.85-0.33,8.504-0.994c0.705-0.166,0.871-0.457,0.871-1.121
			v-3.151c0-0.457-0.33-0.663-0.791-0.663h-0.121c-1.663,0.165-5.354,0.373-7.964,0.373c-3.277,0-4.271-2.158-4.271-4.522v-0.083
			h13.227c0.541,0,0.873-0.373,0.873-0.994v-2.406c0-6.263-3.44-10.908-10.245-10.908
			C152.918,102.107,149.019,106.338,149.019,113.015"/>
	</defs>
	<clipPath id="SVGID_50_">
		<use xlink:href="#SVGID_49_"  overflow="visible"/>
	</clipPath>
	
		<radialGradient id="SVGID_51_" cx="0" cy="288" r="1" gradientTransform="matrix(0 -161.1753 -161.1753 0 46559.1094 250.25)" gradientUnits="userSpaceOnUse">
		<stop  offset="0" style="stop-color:#CFEDFC"/>
		<stop  offset="1" style="stop-color:#2AACE3"/>
	</radialGradient>
	<rect x="149.019" y="102.107" clip-path="url(#SVGID_50_)" fill="url(#SVGID_51_)" width="20.737" height="24.469"/>
</g>
<g>
	<defs>
		<path id="SVGID_52_" d="M96.874,93.085c-0.093-0.233-0.064-0.464,0.066-0.516c0.13-0.053,0.312,0.094,0.406,0.327
			c0.092,0.233,0.062,0.465-0.067,0.517c-0.018,0.007-0.036,0.01-0.056,0.01C97.101,93.423,96.954,93.286,96.874,93.085
			 M93.615,91.42c-1.368,0.549-2.239,1.812-2.367,3.2l-0.306-0.136c0,0-2.441-1.589-2.61-1.168c-0.17,0.422,1.532,3.815,1.532,3.815
			s1.106,3.627,1.532,3.813c0.425,0.187,1.078-2.647,1.078-2.647l0.137-0.336c1.05,0.892,2.537,1.19,3.892,0.647
			c1.769-0.711,2.708-2.613,2.286-4.437c-0.029,0.268-0.298,0.561-0.693,0.721c-0.493,0.197-0.991,0.108-1.113-0.198
			c-0.005-0.012-0.01-0.026-0.013-0.038c0.251,0.147,0.659,0.155,1.065-0.009c0.342-0.137,0.601-0.364,0.723-0.6
			c-0.043-0.153-0.092-0.306-0.152-0.458c-0.61-1.517-2.059-2.442-3.583-2.442C94.554,91.147,94.077,91.235,93.615,91.42"/>
	</defs>
	<clipPath id="SVGID_53_">
		<use xlink:href="#SVGID_52_"  overflow="visible"/>
	</clipPath>
	
		<radialGradient id="SVGID_54_" cx="0" cy="288" r="1" gradientTransform="matrix(0 -65.6339 -65.6339 0 18986.6289 150.5)" gradientUnits="userSpaceOnUse">
		<stop  offset="0" style="stop-color:#CFEDFC"/>
		<stop  offset="1" style="stop-color:#2AACE3"/>
	</radialGradient>
	<rect x="88.162" y="91.147" clip-path="url(#SVGID_53_)" fill="url(#SVGID_54_)" width="11.049" height="9.984"/>
</g>
</svg>
