<?xml version="1.0" encoding="utf-8"?>
<!-- Generator: Adobe Illustrator 16.0.0, SVG Export Plug-In . SVG Version: 6.00 Build 0)  -->
<!DOCTYPE svg PUBLIC "-//W3C//DTD SVG 1.1//EN" "http://www.w3.org/Graphics/SVG/1.1/DTD/svg11.dtd">
<svg version="1.1" id="Layer_1" xmlns="http://www.w3.org/2000/svg" xmlns:xlink="http://www.w3.org/1999/xlink" x="0px" y="0px"
	 width="288px" height="288px" viewBox="0 0 288 288" enable-background="new 0 0 288 288" xml:space="preserve">
<g>
	<defs>
		<rect id="SVGID_1_" width="288" height="288"/>
	</defs>
	<clipPath id="SVGID_2_">
		<use xlink:href="#SVGID_1_"  overflow="visible"/>
	</clipPath>
	<path clip-path="url(#SVGID_2_)" fill="#1D7DAF" d="M115.932,113.527c-1.183-0.851-9.139-4.307-15.549,1.656
		c-3.525,3.28-0.542,10.312,2.377,12.994c2.919,2.685,6.988,2.89,9.47-0.203c1.3-1.616,1.348-2.523,1.632-3.063
		c3.567-5.193,7.133,3.433,9.106,2.51c1.319-0.618,0.194-2.463-0.848-4.688C119.624,117.319,118.049,115.05,115.932,113.527"/>
	<path clip-path="url(#SVGID_2_)" fill="#1D7DAF" d="M119.908,113.419c-0.064-0.152-0.438-0.956-1.586-0.599
		c-0.43,0.133-0.676,0.795-0.554,1.227c0.121,0.43,0.503,0.692,0.925,0.543c0.22-0.079,0.278-0.164,0.338-0.2
		c0.652-0.285,0.482,0.755,0.728,0.784c0.165,0.017,0.166-0.226,0.196-0.503C120.037,114.002,120.019,113.69,119.908,113.419"/>
	<path clip-path="url(#SVGID_2_)" fill="#1D7DAF" d="M121.657,119.729c-0.011-0.728,0.092-4.653,5.396-5.232
		c1.978-0.217,4.145,2.045,4.412,4.014c0.266,1.973-0.816,3.705-2.801,3.839c-1.038,0.072-1.423-0.169-1.729-0.207
		c-3.159-0.02,0.405,2.888-0.543,3.434c-0.631,0.366-1.79-0.053-2.526-0.816C122.315,122.688,121.678,121.04,121.657,119.729"/>
	<path clip-path="url(#SVGID_2_)" fill="#1D7DAF" d="M120.742,114.658c0.005-0.219,0.092-1.382,1.441-1.431
		c0.509-0.017,1.03,0.704,1.07,1.298c0.036,0.591-0.264,1.084-0.771,1.075c-0.267-0.005-0.359-0.085-0.435-0.102
		c-0.804-0.081,0.061,0.869-0.193,1.009c-0.163,0.093-0.452-0.06-0.627-0.302C120.863,115.55,120.726,115.044,120.742,114.658"/>
	<path clip-path="url(#SVGID_2_)" fill="#1D7DAF" d="M72.193,174.375c-7.121,0.581-12.505,0.205-17.198-0.591
		c-0.923-0.199-1.868-0.664-1.949-1.656l-0.722-8.833c-0.103-1.261,0.582-1.771,1.482-1.844c0.091-0.007,0.18-0.016,0.271-0.023
		c3.725,0.059,13.699-0.029,17.214-0.315c6.219-0.509,7.86-2.641,7.506-6.966c-0.213-2.614-1.592-3.952-6.507-6.364l-13.043-6.375
		c-8.787-4.274-11.504-9.765-12.041-16.347c-0.81-9.914,4.153-18.032,21.639-19.46c6.58-0.538,15.771-0.2,19.27,0.422
		c0.736,0.121,1.404,0.521,1.484,1.511l0.744,9.106c0.066,0.808-0.236,1.561-1.407,1.655c0,0-0.09,0.009-0.181,0.016
		c-2.539,0.025-13.059,0.068-19.188,0.569c-5.139,0.42-6.907,2.104-6.642,5.351c0.206,2.523,1.474,3.6,6.555,5.816l12.046,5.276
		c9.786,4.282,13.065,10.004,13.662,17.304C95.968,162.182,90.49,172.88,72.193,174.375"/>
	<path clip-path="url(#SVGID_2_)" fill="#1D7DAF" d="M112.852,170.534c-1.293,0-3.425-0.194-5.301-0.453l-1.267,12.448
		c0,0.712-0.581,1.293-1.291,1.293h-4.02c-0.711,0-1.357-0.581-1.357-1.293l-2.535-46.57c0-1.035,0.259-1.488,2.004-1.875
		c3.684-0.905,8.79-1.68,13.767-1.68c10.47,0,16.221,6.074,16.221,16.544v5.041C129.073,164.136,123.773,170.534,112.852,170.534
		 M118.602,148.948c0-4.589-1.162-7.885-5.75-7.885c-2.134,0-4.072,0.13-5.301,0.323v20.166c1.552,0.192,3.749,0.387,5.301,0.387
		c4.588,0,5.75-3.425,5.75-7.949V148.948z"/>
	<path clip-path="url(#SVGID_2_)" fill="#1D7DAF" d="M138.359,174.598h-1.988c-0.912,0-1.741-0.657-1.741-1.381l-4.875-47.72
		c0-0.723,0.829-1.315,1.742-1.315h10.111c0.91,0,1.573,0.592,1.573,1.315l-3.249,47.72
		C139.933,173.94,139.27,174.598,138.359,174.598"/>
	<path clip-path="url(#SVGID_2_)" fill="#1D7DAF" d="M169.293,175.053l-6.6-0.996c-0.646-0.098-1.099-0.709-1.001-1.357l0.143-0.941
		c-2.548,1.303-5.057,1.949-8.592,1.416c-5.126-0.773-9.704-3.996-8.548-11.657l0.079-0.53c1.04-6.896,5.921-9.293,16.001-7.774
		l3.182,0.48l0.32-2.121c0.506-3.36-1.035-4.315-3.806-4.733c-3.772-0.569-7.993-0.965-9.847-1.062l-0.293-0.045
		c-0.592-0.089-1.019-0.455-0.902-1.221l0.721-4.774c0.098-0.648,0.58-1.058,1.315-1.128c2.259-0.201,6.493-0.287,10.382,0.3
		c8.487,1.281,13.275,5.498,11.977,14.104l-3.174,21.039C170.553,174.699,169.943,175.15,169.293,175.053 M163.281,159.378
		l-3.359-0.506c-4.126-0.623-5.4,0.629-5.836,3.519l-0.079,0.53c-0.374,2.477,0.794,3.135,3.268,3.508
		c1.769,0.267,3.507-0.075,5.028-0.569L163.281,159.378z"/>
	<path clip-path="url(#SVGID_2_)" fill="#1D7DAF" d="M193.651,174.205c-3.523,0.472-12.261,0.612-15.647,0.153
		c-0.796-0.089-1.312-0.542-1.414-1.309l-0.695-5.189c-0.087-0.641,0.283-1.276,1.053-1.381c0.062-0.009,0.191-0.025,0.256-0.033
		c3.519-0.017,12.762-0.29,14.811-0.564c3.075-0.412,3.668-1.34,3.444-3.005c-0.129-0.96-0.799-1.588-2.73-2.372l-8.972-3.688
		c-3.861-1.569-6.414-4.553-6.972-8.716c-0.868-6.469,2.96-10.503,11.8-11.689c5.061-0.678,8.222-0.45,11.6-0.056
		c0.794,0.09,1.312,0.542,1.414,1.311l0.696,5.189c0.103,0.767-0.286,1.276-0.927,1.363c-0.062,0.009-0.127,0.018-0.191,0.025
		c-1.892-0.007-7.479,0.155-10.746,0.593c-2.498,0.336-3.341,0.839-3.146,2.314c0.129,0.96,0.903,1.377,2.287,1.975l8.552,3.482
		c5.729,2.362,7.33,5.538,7.794,8.998C206.724,167.627,203.003,172.95,193.651,174.205"/>
	<path clip-path="url(#SVGID_2_)" fill="#1D7DAF" d="M240.714,173.754h-7.819c-0.71,0-1.293-0.646-1.293-1.357v-21.521
		c0-4.523-0.84-6.011-4.782-6.011c-1.874,0-3.878,0.906-6.075,2.069l-1.267,25.463c0,0.711-0.582,1.357-1.293,1.357h-5.286
		c-0.711,0-1.357-0.646-1.357-1.357l-3.801-59.589c0-0.712,0.582-1.293,1.293-1.293h10.418c0.712,0,1.293,0.581,1.293,1.293v26.305
		c3.296-2.131,6.011-2.907,9.889-2.907c9.371,0,11.438,6.528,11.438,14.67v21.521C242.071,173.107,241.426,173.754,240.714,173.754"
		/>
</g>
</svg>
