<?xml version="1.0" encoding="utf-8"?>
<!-- Generator: Adobe Illustrator 18.1.1, SVG Export Plug-In . SVG Version: 6.00 Build 0)  -->
<svg version="1.1" id="Layer_1" xmlns="http://www.w3.org/2000/svg" xmlns:xlink="http://www.w3.org/1999/xlink" x="0px" y="0px"
	 viewBox="0 0 50.4 50.4" enable-background="new 0 0 50.4 50.4" xml:space="preserve">
<g>
	<path fill="none" d="M39.6,15.8c-1-1.2-2.8-1.6-5.3-1.6C36.8,14.2,38.6,14.7,39.6,15.8c0.8,0.9,1.2,2,1.1,3.4
		C40.8,17.8,40.4,16.7,39.6,15.8z"/>
	<path fill="none" d="M33.6,20.9c-0.1,0.7-0.5,1.3-1.1,1.7C33.1,22.2,33.4,21.7,33.6,20.9c0-0.1,0-0.3,0-0.5
		C33.6,20.6,33.6,20.7,33.6,20.9z"/>
	<path fill="#FFFFFF" d="M24.8,1.4C11.9,1.4,1.4,11.9,1.4,24.8s10.5,23.4,23.4,23.4s23.4-10.5,23.4-23.4S37.7,1.4,24.8,1.4z
		 M11.2,36.2l4.1-22h1.4l-4.2,22H11.2z M14.8,36.2l4.1-22h1.4l-4.2,22H14.8z M40.6,20.8c-0.4,2.3-1.4,4.1-3,5.4
		c-1.6,1.3-3.8,2-6.6,2h-3.8l-1.5,8h-7l4-22h11.5c2.5,0,4.3,0.4,5.3,1.6c0.8,0.9,1.2,2,1.1,3.4C40.7,19.7,40.7,20.3,40.6,20.8z"/>
	<path fill="#FFFFFF" d="M33.6,20.9c0-0.2,0-0.3,0-0.5c0-0.5-0.1-1-0.4-1.4c-0.4-0.5-1.2-0.8-2.5-0.8h-2.3l-0.9,5h2
		c1.3,0,2.3-0.1,2.9-0.6C33.1,22.2,33.4,21.6,33.6,20.9z"/>
</g>
<path fill="none" d="M28.4,18h2c1.3,0,2.1,0.2,2.5,0.7c0.4,0.5,0.5,1.1,0.4,1.8c-0.1,0.7-0.5,1.3-1.1,1.8c-0.6,0.5-1.6,0.7-2.9,0.7
	h-1.7L28.4,18z M22.3,13.4l-4,22.5h7l1.5-8.3h3.8c2.8,0,5-0.6,6.6-1.9c1.6-1.3,2.6-3.1,3-5.3c0.4-2.2,0.1-3.9-1-5.1
	c-1-1.2-2.8-1.8-5.3-1.8H22.3z M14.8,13.4l-4.1,22.6H12l4.2-22.6H14.8z M18.4,13.4l-4.1,22.6h1.3l4.2-22.6H18.4z"/>
</svg>
