<svg xmlns:dc="http://purl.org/dc/elements/1.1/" xmlns:cc="http://creativecommons.org/ns#" xmlns:rdf="http://www.w3.org/1999/02/22-rdf-syntax-ns#" xmlns:svg="http://www.w3.org/2000/svg" xmlns="http://www.w3.org/2000/svg" xmlns:xlink="http://www.w3.org/1999/xlink" xmlns:sodipodi="http://sodipodi.sourceforge.net/DTD/sodipodi-0.dtd" xmlns:inkscape="http://www.inkscape.org/namespaces/inkscape" width="602" height="602" id="svg2" version="1.1" inkscape:version="0.48.2 r9819" sodipodi:docname="iTunes Store.svg">
  <defs id="defs4">
    <linearGradient inkscape:collect="always" id="linearGradient3062">
      <stop style="stop-color:#bb5bfd;stop-opacity:1" offset="0" id="stop3064"/>
      <stop style="stop-color:#eb82d6;stop-opacity:1" offset="1" id="stop3066"/>
    </linearGradient>
    <linearGradient id="linearGradient3049" inkscape:collect="always">
      <stop id="stop3051" offset="0" style="stop-color:#2350eb;stop-opacity:1"/>
      <stop id="stop3053" offset="1" style="stop-color:#2fdaf7;stop-opacity:1"/>
    </linearGradient>
    <inkscape:path-effect effect="spiro" id="path-effect3009" is_visible="true"/>
    <linearGradient inkscape:collect="always" id="linearGradient3915">
      <stop style="stop-color:#0081f8;stop-opacity:1;" offset="0" id="stop3917"/>
      <stop style="stop-color:#01ddff;stop-opacity:1" offset="1" id="stop3919"/>
    </linearGradient>
    <linearGradient id="linearGradient3883">
      <stop style="stop-color:#0081f8;stop-opacity:1;" offset="0" id="stop3885"/>
      <stop style="stop-color:#0081f8;stop-opacity:0;" offset="1" id="stop3887"/>
    </linearGradient>
    <linearGradient id="linearGradient3843">
      <stop id="stop3851" offset="0" style="stop-color:#3d73c3;stop-opacity:1;"/>
      <stop style="stop-color:#0064f5;stop-opacity:0.37254902;" offset="0.25" id="stop3857"/>
      <stop style="stop-color:#0064f5;stop-opacity:0.24705882;" offset="0.5" id="stop3855"/>
      <stop style="stop-color:#0064f5;stop-opacity:0;" offset="1" id="stop3847"/>
    </linearGradient>
    <linearGradient id="linearGradient3835">
      <stop style="stop-color:#ffffff;stop-opacity:1;" offset="0" id="stop3837"/>
      <stop style="stop-color:#ffffff;stop-opacity:0;" offset="1" id="stop3839"/>
    </linearGradient>
    <linearGradient inkscape:collect="always" xlink:href="#linearGradient3915" id="linearGradient3921" x1="377.88785" y1="512.68927" x2="378.47192" y2="338.63889" gradientUnits="userSpaceOnUse"/>
    <linearGradient inkscape:collect="always" xlink:href="#linearGradient3915" id="linearGradient3020" gradientUnits="userSpaceOnUse" gradientTransform="translate(1.8025861e-5,450.362)" x1="305.20093" y1="598.59198" x2="305.785" y2="8.2437592"/>
    <linearGradient inkscape:collect="always" xlink:href="#linearGradient3915" id="linearGradient3037" gradientUnits="userSpaceOnUse" gradientTransform="matrix(0.145,0,0,0.145,-176.81529,570.36553)" x1="305.20093" y1="598.59198" x2="305.785" y2="8.2437592"/>
    <linearGradient inkscape:collect="always" xlink:href="#linearGradient3049" id="linearGradient3033" gradientUnits="userSpaceOnUse" gradientTransform="translate(9.35025e-5,450.36203)" x1="305.20093" y1="598.59198" x2="305.785" y2="8.2437592"/>
    <linearGradient inkscape:collect="always" xlink:href="#linearGradient3062" id="linearGradient3060" gradientUnits="userSpaceOnUse" gradientTransform="translate(9.349e-5,450.36202)" x1="305.20093" y1="598.59198" x2="305.785" y2="8.2437592"/>
  </defs>
  <sodipodi:namedview id="base" pagecolor="#ffffff" bordercolor="#666666" borderopacity="1.0" inkscape:pageopacity="0.0" inkscape:pageshadow="2" inkscape:zoom="0.52906977" inkscape:cx="319.18373" inkscape:cy="203.94164" inkscape:document-units="px" inkscape:current-layer="layer1" showgrid="false" inkscape:window-width="1366" inkscape:window-height="706" inkscape:window-x="-8" inkscape:window-y="-8" inkscape:window-maximized="1"/>
  <metadata id="metadata7">
    <rdf:RDF>
      <cc:Work rdf:about="">
        <dc:format>image/svg+xml</dc:format>
        <dc:type rdf:resource="http://purl.org/dc/dcmitype/StillImage"/>
        <dc:title/>
      </cc:Work>
    </rdf:RDF>
  </metadata>
  <g inkscape:label="Calque 1" inkscape:groupmode="layer" id="layer1" transform="translate(0,-450.36218)">
    <path id="rect2996" d="m 138.68423,451.36222 324.63159,0 c 76.277,0 137.6842,61.4071 137.6842,137.68421 l 0,324.63159 c 0,76.27703 -61.4072,137.68418 -137.6842,137.68418 l -324.63159,0 c -76.277032,0 -137.6842055,-61.40715 -137.6842055,-137.68418 l 0,-324.63159 c 0,-76.27711 61.4071735,-137.68421 137.6842055,-137.68421 z" style="color:#000000;fill:url(#linearGradient3060);fill-opacity:1;fill-rule:nonzero;stroke:none;stroke-width:0.1;marker:none;visibility:visible;display:inline;overflow:visible;enable-background:accumulate" inkscape:connector-curvature="0"/>
    <path inkscape:connector-curvature="0" style="color:#000000;fill:#ffffff;fill-opacity:1;fill-rule:nonzero;stroke:none;stroke-width:0.1;marker:none;visibility:visible;display:inline;overflow:visible;enable-background:accumulate" d="m 300.4622,487.62339 c -142.35979,0 -257.758619,115.39883 -257.758619,257.75862 0,142.3598 115.398829,257.75859 257.758619,257.75859 142.35978,0 257.75863,-115.39879 257.75863,-257.75859 0,-142.35979 -115.39885,-257.75862 -257.75863,-257.75862 z m 0,28.44828 c 126.62939,0 229.31035,102.68096 229.31035,229.31034 0,126.62938 -102.68096,229.31035 -229.31035,229.31035 -126.62938,0 -229.094825,-102.68097 -229.094825,-229.31035 0,-126.62938 102.465445,-229.31034 229.094825,-229.31034 z" id="path3035"/>
    <g id="g3044" style="fill:#ffffff" transform="matrix(6.6666667,0,0,6.6666667,-5.6668055,-5957.7192)">
      <path style="color:#000000;fill:#ffffff;fill-opacity:1;fill-rule:nonzero;stroke:none;stroke-width:6.19999981;marker:none;visibility:visible;display:inline;overflow:visible;enable-background:accumulate" d="m 62.03125,529.3125 -26.8125,7.25 -0.03125,0 0,10.90625 0.03125,0 0,19.5 c -1.173186,-0.70561 -2.611287,-1.125 -4.15625,-1.125 -3.979788,0 -7.1875,2.76364 -7.1875,6.15625 0,3.39261 3.207712,6.125 7.1875,6.125 3.979788,0 7.360598,-2.73536 7.21875,-6.125 l -0.0728,-1.7397 -0.177198,-23.5728 21.1875,-5.71875 0,21.53125 c -1.237229,-0.85265 -2.816364,-1.375 -4.53125,-1.375 -3.979788,0 -7.1875,2.76364 -7.1875,6.15625 0,3.39261 3.207712,6.125 7.1875,6.125 3.979788,0 7.325069,-2.73239 7.325069,-6.125 0,-0.0317 5.62e-4,-0.0621 0,-0.0937 l 0.01868,-26.96875 0,-9.65625 0,-1.25 z" transform="translate(0,450.36218)" id="path3036" inkscape:connector-curvature="0" sodipodi:nodetypes="ccccccssssccccssssccccc"/>
    </g>
  </g>
</svg>
