<?xml version="1.0" encoding="utf-8"?>
<!-- Generator: Adobe Illustrator 16.0.0, SVG Export Plug-In . SVG Version: 6.00 Build 0)  -->
<!DOCTYPE svg PUBLIC "-//W3C//DTD SVG 1.1//EN" "http://www.w3.org/Graphics/SVG/1.1/DTD/svg11.dtd">
<svg version="1.1" id="Layer_1" xmlns="http://www.w3.org/2000/svg" xmlns:xlink="http://www.w3.org/1999/xlink" x="0px" y="0px"
	 width="288px" height="288px" viewBox="0 0 288 288" enable-background="new 0 0 288 288" xml:space="preserve">
<g>
	<defs>
		<rect id="SVGID_1_" width="288" height="288"/>
	</defs>
	<clipPath id="SVGID_2_">
		<use xlink:href="#SVGID_1_"  overflow="visible"/>
	</clipPath>
	<path clip-path="url(#SVGID_2_)" fill="#00A79D" d="M80.722,120.277c0.577-0.089,1.059-0.346,1.33-0.666
		c-0.009-0.251-0.03-0.506-0.069-0.762c-0.515-3.35-3.614-5.653-6.919-5.145c-2.31,0.356-4.107,1.991-4.807,4.087l-0.424-0.322
		c0,0-3.194-3.329-3.606-2.739c-0.413,0.588,0.99,6.437,0.99,6.437s0.402,5.996,0.991,6.436c0.589,0.442,2.616-3.697,2.616-3.697
		l0.332-0.469c1.301,1.757,3.487,2.751,5.774,2.399c2.986-0.459,5.12-3.058,5.125-6.024c-0.139,0.404-0.661,0.76-1.328,0.862
		c-0.829,0.127-1.567-0.187-1.647-0.705c-0.004-0.02-0.005-0.042-0.007-0.064C79.405,120.224,80.036,120.382,80.722,120.277
		 M79.78,116.674c0.218-0.033,0.445,0.258,0.506,0.652c0.061,0.393-0.068,0.739-0.288,0.773c-0.218,0.033-0.446-0.258-0.507-0.652
		C79.432,117.055,79.559,116.707,79.78,116.674"/>
	<path clip-path="url(#SVGID_2_)" fill="#00A79D" d="M179.086,156.441c0.291,0.004,0.549-0.082,0.709-0.217
		c0.016-0.122,0.027-0.25,0.029-0.379c0.03-1.686-1.293-3.076-2.96-3.107c-1.161-0.02-2.181,0.631-2.702,1.599l-0.18-0.193
		c0,0-1.284-1.901-1.537-1.647c-0.252,0.253-0.058,3.24-0.058,3.24s-0.31,2.975-0.058,3.24c0.25,0.268,1.595-1.592,1.595-1.592
		l0.202-0.202c0.49,0.972,1.479,1.642,2.629,1.663c1.504,0.027,2.77-1.066,3.022-2.521c-0.103,0.186-0.388,0.316-0.724,0.312
		c-0.417-0.009-0.752-0.225-0.748-0.486c0-0.011,0.001-0.02,0.002-0.031C178.445,156.303,178.74,156.434,179.086,156.441
		 M178.928,154.594c0.111,0.002,0.197,0.164,0.193,0.363c-0.004,0.197-0.096,0.355-0.207,0.354
		c-0.108-0.002-0.195-0.163-0.192-0.363C178.725,154.752,178.816,154.592,178.928,154.594"/>
	<path clip-path="url(#SVGID_2_)" fill="#00A79D" d="M176.455,148.463c0.15,0.002,0.284-0.042,0.367-0.112
		c0.009-0.062,0.014-0.128,0.015-0.194c0.016-0.874-0.669-1.594-1.531-1.609c-0.602-0.011-1.13,0.326-1.399,0.827l-0.094-0.101
		c0,0-0.664-0.984-0.795-0.854c-0.131,0.132-0.029,1.678-0.029,1.678s-0.161,1.541-0.031,1.677c0.131,0.14,0.826-0.823,0.826-0.823
		l0.105-0.104c0.254,0.5,0.766,0.85,1.361,0.861c0.777,0.013,1.434-0.553,1.564-1.307c-0.054,0.098-0.202,0.164-0.377,0.162
		c-0.215-0.004-0.389-0.117-0.387-0.251c0.002-0.005,0.002-0.011,0.002-0.017C176.123,148.393,176.277,148.459,176.455,148.463
		 M176.373,147.507c0.057,0.001,0.102,0.085,0.1,0.187c-0.001,0.104-0.049,0.187-0.107,0.186c-0.056-0.002-0.102-0.085-0.098-0.189
		C176.268,147.59,176.315,147.506,176.373,147.507"/>
	<path clip-path="url(#SVGID_2_)" fill="#00A79D" d="M181.25,150.688c0.11,0.002,0.209-0.03,0.27-0.082
		c0.008-0.047,0.01-0.095,0.01-0.144c0.014-0.641-0.49-1.168-1.123-1.178c-0.44-0.01-0.828,0.237-1.025,0.605l-0.068-0.073
		c0,0-0.486-0.722-0.583-0.626c-0.095,0.098-0.022,1.23-0.022,1.23s-0.117,1.13-0.022,1.23c0.097,0.101,0.606-0.605,0.606-0.605
		l0.078-0.076c0.186,0.367,0.561,0.623,0.997,0.632c0.57,0.011,1.052-0.405,1.147-0.958c-0.04,0.073-0.148,0.12-0.276,0.119
		c-0.157-0.003-0.285-0.086-0.282-0.185v-0.014C181.006,150.637,181.12,150.688,181.25,150.688 M181.189,149.988
		c0.042,0,0.075,0.062,0.073,0.136c-0.001,0.076-0.034,0.138-0.078,0.137c-0.042-0.001-0.074-0.063-0.072-0.138
		C181.112,150.048,181.148,149.986,181.189,149.988"/>
	<path clip-path="url(#SVGID_2_)" fill="#00A79D" d="M60.075,174.422h-5.921c-0.646,0-1.15-0.645-1.15-1.433l-1.77-29.89
		c0-0.503-0.209-0.573-0.356-0.573c-0.215,0-0.355,0.143-0.572,0.502l-6.454,11.826c-0.503,0.859-1.215,1.219-2.15,1.219h-5.73
		c-0.934,0-1.651-0.359-2.154-1.219l-6.448-11.826c-0.217-0.359-0.364-0.502-0.573-0.502c-0.147,0-0.363,0.07-0.363,0.573
		l-1.77,29.89c0,0.788-0.502,1.433-1.143,1.433h-5.926c-0.572,0-1.214-0.215-1.214-1.002l-3.541-55.131
		c0-1.506,1.073-2.436,2.579-2.436h6.736c1.506,0,2.509,0.718,3.157,1.935l12.739,25.742c0.285,0.572,0.502,0.931,0.787,0.931
		c0.285,0,0.503-0.359,0.788-0.931l10.967-27.513c0.641-1.217,1.645-1.935,3.151-1.935h6.741c1.506,0,2.58,1.005,2.58,2.509
		l-1.771,56.829C61.294,174.207,60.647,174.422,60.075,174.422"/>
	<path clip-path="url(#SVGID_2_)" fill="#00A79D" d="M199.388,128.247h5.921c0.646,0,1.15,0.646,1.15,1.433l1.77,29.891
		c0,0.502,0.21,0.572,0.356,0.572c0.214,0,0.354-0.143,0.57-0.502l6.456-11.825c0.502-0.86,1.215-1.22,2.148-1.22h5.73
		c0.934,0,1.65,0.359,2.154,1.22l6.447,11.825c0.217,0.359,0.363,0.502,0.573,0.502c0.147,0,0.363-0.07,0.363-0.572l1.771-29.891
		c0-0.787,0.501-1.433,1.143-1.433h5.925c0.573,0,1.216,0.215,1.216,1.003l3.541,55.129c0,1.507-1.074,2.438-2.58,2.438h-6.734
		c-1.506,0-2.51-0.719-3.158-1.935l-12.739-25.743c-0.284-0.571-0.501-0.931-0.786-0.931s-0.503,0.359-0.789,0.931l-10.965,27.514
		c-0.643,1.217-1.646,1.936-3.152,1.936h-6.741c-1.506,0-2.579-1.006-2.579-2.51l1.77-56.829
		C198.168,128.461,198.815,128.247,199.388,128.247"/>
	<path clip-path="url(#SVGID_2_)" fill="#00A79D" d="M75.798,174.422h-5.203c-0.787,0-1.435-0.645-1.435-1.433l-1.771-38.206
		c0-0.787,0.648-1.433,1.435-1.433h8.745c0.787,0,1.435,0.646,1.435,1.433l-1.771,38.206
		C77.233,173.777,76.585,174.422,75.798,174.422"/>
	<path clip-path="url(#SVGID_2_)" fill="#00A79D" d="M114.574,176.193h-6.902c-0.787,0-1.43-0.719-1.43-1.506v-25.639
		c0-5.017-0.934-6.667-5.306-6.667c-2.078,0-4.301,1.001-6.74,2.295l-1.77,33.551c0,0.787-0.644,1.506-1.43,1.506h-5.132
		c-0.789,0-1.507-0.719-1.507-1.506l-1.77-43.444c0-0.788,0.641-1.433,1.43-1.433h8.03c0.789,0,1.437,0.645,1.437,1.433v1.718
		c3.94-2.795,7.091-3.726,11.678-3.726c10.394,0,12.689,7.24,12.689,16.272l-1.771,25.639
		C116.08,175.475,115.363,176.193,114.574,176.193"/>
	<path clip-path="url(#SVGID_2_)" fill="#00A79D" d="M153.824,176.193h-8.674c-0.787,0-1.43-0.719-1.43-1.506v-25.639
		c0-5.017-0.933-6.667-5.305-6.667c-2.079,0-4.302,1.001-6.74,2.295l-1.771,33.551c0,0.787-0.643,1.506-1.43,1.506h-5.132
		c-0.789,0-1.506-0.719-1.506-1.506l-1.771-43.444c0-0.788,0.642-1.433,1.43-1.433h8.03c0.789,0,1.438,0.645,1.438,1.433v1.718
		c3.938-2.795,7.09-3.726,11.677-3.726c10.395,0,12.69,7.24,12.69,16.272v25.639C155.33,175.475,154.611,176.193,153.824,176.193"/>
	<path clip-path="url(#SVGID_2_)" fill="#00A79D" d="M262.363,172.276c-3.185,0-7.588-0.463-10.546-1.273
		c-0.692-0.175-1.1-0.64-1.1-1.333v-4.695c0-0.577,0.407-1.099,1.1-1.099h0.231c3.132,0.403,7.998,0.809,9.85,0.809
		c2.785,0,3.422-0.753,3.422-2.261c0-0.867-0.523-1.504-2.146-2.432l-7.53-4.346c-3.247-1.854-5.156-4.809-5.156-8.577
		c0-5.851,3.882-8.981,11.876-8.981c4.58,0,7.361,0.58,10.318,1.333c0.692,0.174,1.1,0.636,1.1,1.333v4.694
		c0,0.694-0.407,1.101-0.986,1.101h-0.175c-1.679-0.232-6.662-0.754-9.616-0.754c-2.26,0-3.07,0.348-3.07,1.682
		c0,0.869,0.637,1.33,1.792,2.028l7.186,4.114c4.813,2.78,5.855,5.793,5.855,8.924C274.767,167.987,270.827,172.276,262.363,172.276
		"/>
	<path clip-path="url(#SVGID_2_)" fill="#00A79D" d="M176.594,132.776c-11.614,0-17.993,7.24-17.993,18.636v5.02
		c0,11.395,6.379,18.635,17.993,18.635c11.615,0,17.918-7.24,17.918-18.635v-5.02C194.512,140.016,188.209,132.776,176.594,132.776
		 M176.576,163.418c-5.562,0-10.07-4.51-10.07-10.07c0-5.562,4.509-10.072,10.07-10.072c5.563,0,10.07,4.509,10.07,10.072
		C186.646,158.908,182.14,163.418,176.576,163.418"/>
	<path clip-path="url(#SVGID_2_)" fill="#00A79D" d="M97.975,128.93c-1.138,0.188-1.896,0.303-2.996,0.303
		c-4.173,0-6.372-1.1-6.372-6.486v-10.999l-3.034-0.494c-0.417-0.075-0.797-0.378-0.797-0.795v-2.503
		c0-0.419,0.38-0.797,0.797-0.797h3.034v-3.109c0-0.419,0.342-0.684,0.759-0.76l4.627-0.797h0.113c0.38,0,0.682,0.266,0.682,0.645
		v4.021h3.112c0.417,0,0.759,0.341,0.759,0.758v3.072c0,0.419-0.342,0.759-0.759,0.759h-3.112v11.036
		c0,1.519,0.115,1.784,1.253,1.784h1.859c0.493,0,0.796,0.227,0.796,0.644v2.958C98.696,128.55,98.43,128.853,97.975,128.93"/>
	<path clip-path="url(#SVGID_2_)" fill="#00A79D" d="M118.02,128.891h-2.59c-0.418,0-0.76-0.38-0.76-0.796v-12.63
		c0-2.655-0.492-3.527-2.804-3.527c-1.102,0-2.277,0.53-3.567,1.214l-1,14.943c0,0.416-0.341,0.796-0.758,0.796h-2.588
		c-0.419,0-0.797-0.38-0.797-0.796l-1-27.536c0-0.417,0.341-0.758,0.758-0.758h4.627c0.417,0,0.758,0.341,0.758,0.758v8.002
		c1.936-1.251,3.528-1.706,5.803-1.706c5.499,0,6.713,3.831,6.713,8.61l-2,12.63C118.814,128.511,118.436,128.891,118.02,128.891"/>
	<path clip-path="url(#SVGID_2_)" fill="#00A79D" d="M139.355,120.77h-11.018v0.069c0,1.968,0.829,3.766,3.557,3.766
		c2.177,0,5.25-0.173,6.631-0.311h0.104c0.381,0,0.657,0.172,0.657,0.553v2.624c0,0.552-0.14,0.793-0.725,0.933
		c-2.211,0.552-4.077,0.828-7.081,0.828c-4.179,0-8.67-2.21-8.67-8.877v-2.417c0-5.559,3.247-9.083,8.74-9.083
		c5.664,0,8.531,3.868,8.531,9.083v2.004C140.081,120.459,139.804,120.77,139.355,120.77 M134.623,117.179
		c0-2.556-1.174-3.834-3.108-3.834c-1.9,0-3.178,1.313-3.178,3.834v0.138h6.286V117.179z"/>
</g>
</svg>
